#!OML:ASF E:/inclinewalkrobotboard/Project1/Captureday1/Session1/subject1.ASF
:FULLY-SPECIFIED
:DEGREES
251
root 0 0 0 2.8819063053265457 -4.28773762888787 2.1066299540260376
lowerback 11.804329308294136 1.1936519753617825 -0.05313177220406684
upperback -4.210440960404465 1.540405203388356 -0.7911075131364723
thorax -11.08467144465663 0.7081273286823554 -1.1238462368232818
lowerneck -6.968910802616298 1.2818779370521936 4.261411431863414
upperneck 19.068112184907402 2.686973089556151 -8.010097719253258
head 7.122843082646428 0.9217141230519134 -3.11662189064581
rclavicle -1.2685468634023889E-15 -7.060616908416749E-16
rhumerus 17.56861992679662 13.568532518626279 -51.57178410160425
rradius 69.01104447455944
rwrist 23.564089588865496
rhand -32.9316740168522 -48.954218895858055
rfingers 7.125019999999962
rthumb -6.197177061077163 -79.01099660846893
lclavicle 9.435154101578844E-16 9.484809313434583E-16
lhumerus 17.53396929162753 -13.44790516495206 49.46555478359319
lradius 66.9963656424838
lwrist -18.256763500141105
lhand -43.89446878061897 -60.350674646045476
lfingers 7.125019999999955
lthumb -16.73045881882608 -30.896082985749803
rfemur -23.111112218478816 2.506048914974283 20.310694627219252
rtibia 29.852448817328515
rfoot -28.576630093598865 -16.05212836882503
rtoes -21.430509833085097
lfemur -20.996434562054866 0.038276288423483684 -15.30756769463982
ltibia 31.79696863868164
lfoot -26.33185955153282 5.437682943439401
ltoes -19.886906189388263
252
root 0 0 0 2.817188966536636 -4.267098813875488 2.1432369462123066
lowerback 11.78289278743588 1.186518811329797 -0.08301931516687178
upperback -4.217904550768349 1.5256404775468277 -0.7995151388445966
thorax -11.081530782213587 0.7018251275035314 -1.1123615626230035
lowerneck -6.935951894441837 1.2676631860180667 4.267325118208163
upperneck 19.25400671483168 2.668034779259215 -8.040498802539906
head 7.180386032001399 0.9098422255005875 -3.1306840725225484
rclavicle -9.921898648346793E-16 -7.777242313385666E-16
rhumerus 17.122013418231397 12.976436051465813 -51.23391182644495
rradius 68.65128844720459
rwrist 23.947072618817497
rhand -32.911188259056686 -48.96157096175323
rfingers 7.125019999999962
rthumb -6.1752437472612165 -79.0349269084886
lclavicle 9.98468524590794E-16 7.835960022850938E-16
lhumerus 17.312272688659093 -13.070643237624967 49.371345826974775
lradius 66.73358379538519
lwrist -18.449732813603234
lhand -43.868241304568954 -60.56628313311136
lfingers 7.125019999999955
lthumb -16.706662261321238 -31.10735198866357
rfemur -23.170676663477522 2.0171171948741886 19.471048026270743
rtibia 33.621068864302515
rfoot -25.17676192383461 -15.26320111069084
rtoes -21.01971783116094
lfemur -19.728838300750922 0.026402722549573043 -14.8909993950022
ltibia 34.14430646530835
lfoot -23.05595171727829 3.267305224720543
ltoes -20.507485094108972
253
root 0 0 0 2.659041557230182 -4.236974657285522 2.250532096192849
lowerback 11.815229791594556 1.163252773013061 -0.17222225282355585
upperback -4.21709917698186 1.482853337378859 -0.8146645258872939
thorax -11.107117895116124 0.6836295521517515 -1.0709252151021478
lowerneck -6.893446324774689 1.2713394579918844 4.2810965057765245
upperneck 19.441688548635 2.6760642685448035 -8.095570142044917
head 7.236885516075363 0.9086966074981057 -3.1516828426931927
rclavicle -6.964894287974193E-16 -9.813086957532407E-16
rhumerus 16.662034045617347 12.346730260149647 -50.84498973063008
rradius 68.28093662920853
rwrist 24.38159420138482
rhand -32.89904861194905 -49.01509097307969
rfingers 7.125019999999962
rthumb -6.162125339651606 -79.11024672801187
lclavicle 1.0164131989178798E-15 5.184361848444605E-16
lhumerus 17.164701571336543 -12.73481205236778 49.25217190486824
lradius 66.53024526978476
lwrist -18.65031983673667
lhand -43.86745062577792 -60.85985872801749
lfingers 7.125019999999954
lthumb -16.7073718229471 -31.400373731165597
rfemur -24.8345536270372 0.7229428451826181 17.815866080241804
rtibia 42.33162274084426
rfoot -20.134766930257797 -14.447881456206982
rtoes -19.12890528112478
lfemur -18.662384414163007 0.660786554917402 -14.500496370823036
ltibia 40.62600441925768
lfoot -19.370059925325087 0.1524151098996298
ltoes -21.00863767115764
254
root 0 0 0 2.3937591610398608 -4.17555702735411 2.43171448541215
lowerback 11.91206138304092 1.1151962320991045 -0.33070559895493257
upperback -4.19775524992392 1.3997041185191113 -0.8307706683631831
thorax -11.158164230954435 0.6479986697141658 -0.9855950489450782
lowerneck -6.868536938732194 1.298450053136136 4.296982966012746
upperneck 19.56247700836481 2.718287482014537 -8.157799164178059
head 7.273585525453688 0.922661759921921 -3.172095326557711
rclavicle -4.834182739878584E-16 -1.293062067742989E-15
rhumerus 16.265402370897803 11.78111804365083 -50.4639834679121
rradius 67.96142792477909
rwrist 24.80128280316523
rhand -32.89838717425034 -49.112027351734554
rfingers 7.125019999999963
rthumb -6.160943599067034 -79.23181626107785
lclavicle 9.559614932759642E-16 1.8512468679314235E-16
lhumerus 17.139999060269226 -12.52154527478461 49.12695538086522
lradius 66.44451883725479
lwrist -18.817021650288225
lhand -43.89936031764396 -61.192265259890405
lfingers 7.125019999999955
lthumb -16.739334878587858 -31.735626094101246
rfemur -28.097796879092115 -0.9022808871721817 15.880806551201886
rtibia 52.776676482895745
rfoot -14.410646105080957 -13.622556543864254
rtoes -15.73497010181761
lfemur -17.822403517974585 1.9179719562987345 -14.291488767435194
ltibia 50.99158144272415
lfoot -15.08580132133419 -3.9059312727236213
ltoes -20.8337670570438
255
root 0 0 0 2.0513235138067283 -4.047752286421595 2.6431078258474603
lowerback 12.059909052962114 1.028808476856915 -0.5348331607561737
upperback -4.152010272154647 1.2614619223650134 -0.8278900055192896
thorax -11.216984528117063 0.5872310781302866 -0.8462187787597886
lowerneck -6.9030599090024 1.3424755418356666 4.3093891597934
upperneck 19.602188618497625 2.785392560529587 -8.216177972338128
head 7.292236542735498 0.9478731785634767 -3.1886257284204946
rclavicle -4.716287158742908E-16 -1.673763227775428E-15
rhumerus 15.98330235581591 11.363409113189105 -50.164073135563
rradius 67.73474436584164
rwrist 25.12869277223234
rhand -32.90454918794262 -49.21293851676473
rfingers 7.125019999999963
rthumb -6.166522987950255 -79.35266389746195
lclavicle 7.345529198076475E-16 -1.4874782515384222E-16
lhumerus 17.22843477248503 -12.484548977357925 49.036559069608636
lradius 66.49011208006416
lwrist -18.900801412799677
lhand -43.94901424109069 -61.45351311903449
lfingers 7.125019999999955
lthumb -16.7882454715745 -32.001107588907686
rfemur -31.25878832925695 -1.9623675892325636 14.878530559051939
rtibia 59.36813357307952
rfoot -10.754841230463462 -12.9840869832598
rtoes -12.031425825874573
lfemur -17.615852679273832 3.4237328884609166 -14.514794570724954
ltibia 61.362777779911
lfoot -10.656232309092902 -7.6399379059617285
ltoes -18.697466561207776
